<mxfile host="app.diagrams.net" modified="2023-03-17T22:42:54.743Z" agent="5.0 (Windows NT 10.0; Win64; x64) AppleWebKit/537.36 (KHTML, like Gecko) Chrome/111.0.0.0 Safari/537.36" etag="rwRcNJf05oD1ShB7yHn5" version="21.0.6" type="github" pages="2">
  <diagram name="Page-1" id="64c3da0e-402f-94eb-ee01-a36477274f13">
    <mxGraphModel dx="1674" dy="788" grid="1" gridSize="10" guides="1" tooltips="1" connect="1" arrows="1" fold="1" page="1" pageScale="1" pageWidth="1169" pageHeight="826" background="none" math="0" shadow="0">
      <root>
        <mxCell id="0" />
        <mxCell id="1" parent="0" />
        <mxCell id="2" value="Conceptos básicos de ciberseguridad" style="whiteSpace=wrap;rounded=1;shadow=1;fillColor=#10739E;strokeColor=none;fontColor=#FFFFFF;fontStyle=1;fontSize=24" parent="1" vertex="1">
          <mxGeometry x="1000" y="50" width="340" height="60" as="geometry" />
        </mxCell>
        <mxCell id="3" value="Ciberseguridad" style="whiteSpace=wrap;rounded=1;fillColor=#F2931E;strokeColor=none;shadow=1;fontColor=#FFFFFF;fontStyle=1;fontSize=14" parent="1" vertex="1">
          <mxGeometry x="160" y="169.9999999999998" width="140" height="60" as="geometry" />
        </mxCell>
        <mxCell id="4" value="Seguridad de la información" style="whiteSpace=wrap;rounded=1;fillColor=#F2931E;strokeColor=none;shadow=1;fontColor=#FFFFFF;fontStyle=1;fontSize=14" parent="1" vertex="1">
          <mxGeometry x="530" y="169.9999999999998" width="140" height="60" as="geometry" />
        </mxCell>
        <mxCell id="5" value="Seguridad" style="whiteSpace=wrap;rounded=1;fillColor=#F2931E;strokeColor=none;shadow=1;fontColor=#FFFFFF;fontStyle=1;fontSize=14" parent="1" vertex="1">
          <mxGeometry x="2010" y="169.9999999999998" width="140" height="60" as="geometry" />
        </mxCell>
        <mxCell id="6" value="Vulnerabilidad" style="whiteSpace=wrap;rounded=1;fillColor=#F2931E;strokeColor=none;shadow=1;fontColor=#FFFFFF;fontStyle=1;fontSize=14" parent="1" vertex="1">
          <mxGeometry x="900" y="169.9999999999998" width="140" height="60" as="geometry" />
        </mxCell>
        <mxCell id="7" value="Amenaza" style="whiteSpace=wrap;rounded=1;fillColor=#F2931E;strokeColor=none;shadow=1;fontColor=#FFFFFF;fontStyle=1;fontSize=14" parent="1" vertex="1">
          <mxGeometry x="1270" y="169.9999999999998" width="140" height="60" as="geometry" />
        </mxCell>
        <mxCell id="8" value="Riesgo y sus clasificaciones" style="whiteSpace=wrap;rounded=1;fillColor=#F2931E;strokeColor=none;shadow=1;fontColor=#FFFFFF;fontStyle=1;fontSize=14" parent="1" vertex="1">
          <mxGeometry x="1640" y="169.9999999999998" width="140" height="60" as="geometry" />
        </mxCell>
        <mxCell id="10" value="Definición&#xa;Es la práctica de proteger sistemas, redes y programas de ataques digitales" style="whiteSpace=wrap;rounded=1;fillColor=#12AAB5;strokeColor=none;shadow=1;fontColor=#FFFFFF;" parent="1" vertex="1">
          <mxGeometry x="68" y="350" width="297.23" height="110" as="geometry" />
        </mxCell>
        <mxCell id="23" value="Caracteristicas&#xa;acceder, modificar o destruir la información confidencial; Extorsionar a los usuarios o los usuarios o interrumpir la continuidad del negocio." style="whiteSpace=wrap;rounded=1;fillColor=#999999;strokeColor=none;shadow=1;fontColor=#FFFFFF;fontStyle=0" parent="1" vertex="1">
          <mxGeometry x="63.23" y="471" width="305" height="119" as="geometry" />
        </mxCell>
        <mxCell id="24" value="Datos:&#xa;Gartner predice que el gasto mundial en ciberseguridad alcanzará los 188 300 millones de dólares en 2023 y sobrepasará los 260 000 millones en 2026. &#xa;" style="whiteSpace=wrap;rounded=1;fillColor=#999999;strokeColor=none;shadow=1;fontColor=#FFFFFF;fontStyle=0" parent="1" vertex="1">
          <mxGeometry x="66.11" y="603" width="305" height="119" as="geometry" />
        </mxCell>
        <mxCell id="43" value="Es el conjunto de medidas preventivas y reactivas de las organizaciones y sistemas tecnológicos que permiten resguardar y proteger la información buscando mantener la confidencialidad, la disponibilidad e integridad de datos. " style="whiteSpace=wrap;rounded=1;fillColor=#12AAB5;strokeColor=none;shadow=1;fontColor=#FFFFFF;" parent="1" vertex="1">
          <mxGeometry x="452.5" y="350" width="285" height="120" as="geometry" />
        </mxCell>
        <mxCell id="45" value="La información se puede clasificar:&#xa;&#xa;Crítica: Es indispensable para la&#xa;operación de la empresa.&#xa;Valiosa: Es un activo de la empresa&#xa;y muy valioso.&#xa;Sensible: Debe de ser conocida por&#xa;las personas autorizadas." style="whiteSpace=wrap;rounded=1;fillColor=#999999;strokeColor=none;shadow=1;fontColor=#FFFFFF;fontStyle=0" parent="1" vertex="1">
          <mxGeometry x="450" y="481" width="290" height="150" as="geometry" />
        </mxCell>
        <mxCell id="46" value="La seguridad de la información comprende diversos aspectos entre ellos la disponibilidad, comunicación, identificación de problemas, análisis de riesgos, la integridad, confidencialidad, recuperación de los riesgos." style="whiteSpace=wrap;rounded=1;fillColor=#999999;strokeColor=none;shadow=1;fontColor=#FFFFFF;fontStyle=0" parent="1" vertex="1">
          <mxGeometry x="445" y="645" width="300" height="119" as="geometry" />
        </mxCell>
        <mxCell id="133" value="Consiste en algún punto débil que se ha dejado con o sin&#xa;intención en el software o hardware que utilizas, lo que tiene como resultado&#xa;que por allí es donde el hacker o delincuente informático realiza la infección&#xa;para causar un perjuicio cuantioso, que será para él un beneficio." style="whiteSpace=wrap;rounded=1;fillColor=#12AAB5;strokeColor=none;shadow=1;fontColor=#FFFFFF;" parent="1" vertex="1">
          <mxGeometry x="815" y="351.5" width="310" height="157" as="geometry" />
        </mxCell>
        <mxCell id="135" value="Tipos de vulneración informática:&#xa;La vulnerabilidad de día cero, consiste en&#xa;un error que en primer momento no es reconocido en un software.&#xa;Vulnerabilidad de diseño: cuando no&#xa;hay protocolos realizados con expertos, y habrá siempre debilidades." style="whiteSpace=wrap;rounded=1;fillColor=#999999;strokeColor=none;shadow=1;fontColor=#FFFFFF;fontStyle=0" parent="1" vertex="1">
          <mxGeometry x="805" y="521" width="330" height="159" as="geometry" />
        </mxCell>
        <mxCell id="136" value="El 60% de los usuarios cree que sus conocimientos sobre&#xa;seguridad son insuficientes.&#xa;&#xa;&#xa;El 56% de los usuarios cree que su información personal no&#xa;está realmente protegida en línea." style="whiteSpace=wrap;rounded=1;fillColor=#999999;strokeColor=none;shadow=1;fontColor=#FFFFFF;fontStyle=0" parent="1" vertex="1">
          <mxGeometry x="805" y="691" width="330" height="109" as="geometry" />
        </mxCell>
        <mxCell id="155" value="Se definen como cualquier acción que logra identificar y aprovechar la vulnerabilidad del sistema, de manera que se infecta y ataca la base de datos o sistema operativo de información." style="whiteSpace=wrap;rounded=1;fillColor=#12AAB5;strokeColor=none;shadow=1;fontColor=#FFFFFF;" parent="1" vertex="1">
          <mxGeometry x="1180" y="353" width="320" height="107" as="geometry" />
        </mxCell>
        <mxCell id="157" value="La amenaza informática puede presentarse de tres formas:&#xa;&#xa;Ataque de Phishing: correos electrónicos sin una referencia&#xa;concreta que se envían de forma masiva a un costo muy bajo.&#xa;&#xa;Ataque de Phishing personalizado: es un ataque dirigido a un&#xa;individuo en concreto. Esta amenaza informática permite al pirata obteneracceso a datos contables y bancarios.&#xa;&#xa;Ataque de Whaling: intenta engañar a los usuarios para que&#xa;realicen una determinada acción, como revelar información sensible o transferir dinero. " style="whiteSpace=wrap;rounded=1;fillColor=#999999;strokeColor=none;shadow=1;fontColor=#FFFFFF;fontStyle=0" parent="1" vertex="1">
          <mxGeometry x="1175" y="471" width="330" height="249" as="geometry" />
        </mxCell>
        <mxCell id="158" value="Los mayores desafíos de seguridad es el trabajo remoto (47% de las organizaciones) y la protección contra ataques de phishing e ingeniería social (42%)&#xa;El 61% de las organizaciones tiene como principal prioridad asegurar el trabajo remoto para 2026." style="whiteSpace=wrap;rounded=1;fillColor=#999999;strokeColor=none;shadow=1;fontColor=#FFFFFF;fontStyle=0" parent="1" vertex="1">
          <mxGeometry x="1180" y="730" width="325" height="130" as="geometry" />
        </mxCell>
        <mxCell id="172" value="" style="edgeStyle=elbowEdgeStyle;elbow=horizontal;rounded=0;fontColor=#000000;endArrow=none;endFill=0;strokeWidth=8;strokeColor=#23445D;" parent="1" target="162" edge="1">
          <mxGeometry width="100" height="100" relative="1" as="geometry">
            <mxPoint x="1380" y="330.0000000000002" as="sourcePoint" />
            <mxPoint x="1359.9999999999995" y="430.0000000000001" as="targetPoint" />
            <Array as="points">
              <mxPoint x="1360" y="380.0000000000001" />
            </Array>
          </mxGeometry>
        </mxCell>
        <mxCell id="173" value="" style="edgeStyle=elbowEdgeStyle;elbow=horizontal;rounded=0;fontColor=#000000;endArrow=none;endFill=0;strokeWidth=8;strokeColor=#23445D;" parent="1" target="163" edge="1">
          <mxGeometry width="100" height="100" relative="1" as="geometry">
            <mxPoint x="1380" y="330.0000000000002" as="sourcePoint" />
            <mxPoint x="1359.9999999999998" y="510.0000000000001" as="targetPoint" />
            <Array as="points">
              <mxPoint x="1360" y="420.0000000000001" />
            </Array>
          </mxGeometry>
        </mxCell>
        <mxCell id="174" value="" style="edgeStyle=elbowEdgeStyle;elbow=horizontal;rounded=0;fontColor=#000000;endArrow=none;endFill=0;strokeWidth=8;strokeColor=#23445D;" parent="1" target="166" edge="1">
          <mxGeometry width="100" height="100" relative="1" as="geometry">
            <mxPoint x="1380" y="330.0000000000002" as="sourcePoint" />
            <mxPoint x="1360" y="750.0000000000001" as="targetPoint" />
            <Array as="points">
              <mxPoint x="1360" y="540.0000000000001" />
            </Array>
          </mxGeometry>
        </mxCell>
        <mxCell id="175" value="" style="edgeStyle=elbowEdgeStyle;elbow=horizontal;rounded=0;fontColor=#000000;endArrow=none;endFill=0;strokeWidth=8;strokeColor=#23445D;" parent="1" target="165" edge="1">
          <mxGeometry width="100" height="100" relative="1" as="geometry">
            <mxPoint x="1380" y="330.0000000000002" as="sourcePoint" />
            <mxPoint x="1360" y="670.0000000000001" as="targetPoint" />
            <Array as="points">
              <mxPoint x="1360" y="500.0000000000001" />
            </Array>
          </mxGeometry>
        </mxCell>
        <mxCell id="176" value="" style="edgeStyle=elbowEdgeStyle;elbow=horizontal;rounded=0;fontColor=#000000;endArrow=none;endFill=0;strokeWidth=8;strokeColor=#23445D;" parent="1" target="164" edge="1">
          <mxGeometry width="100" height="100" relative="1" as="geometry">
            <mxPoint x="1380" y="330.0000000000002" as="sourcePoint" />
            <mxPoint x="1359.9999999999998" y="590.0000000000001" as="targetPoint" />
            <Array as="points">
              <mxPoint x="1360" y="470.0000000000001" />
            </Array>
          </mxGeometry>
        </mxCell>
        <mxCell id="177" value=" Es un incidente o situación, que ocurre en un sitio concreto en un intervalo de tiempo determinado, con consecuencia negativas o positivas que pueden afectar el cumplimiento de los objetivos" style="whiteSpace=wrap;rounded=1;fillColor=#12AAB5;strokeColor=none;shadow=1;fontColor=#FFFFFF;" parent="1" vertex="1">
          <mxGeometry x="1550" y="353" width="320" height="107" as="geometry" />
        </mxCell>
        <mxCell id="179" value="Clasificación de riesgos:&#xa;Robo de hardware. Robo de información. Vandalismo. Fallas en los equipos. Virus Informáticos. Equivocaciones. Accesos no autorizados. Fraude. Fuego  " style="whiteSpace=wrap;rounded=1;fillColor=#999999;strokeColor=none;shadow=1;fontColor=#FFFFFF;fontStyle=0" parent="1" vertex="1">
          <mxGeometry x="1550" y="471" width="320" height="89" as="geometry" />
        </mxCell>
        <mxCell id="180" value="Una matriz de riesgo constituye una herramienta de control y&#xa;de gestión normalmente utilizada para identificar las actividades de una&#xa;empresa, el tipo y nivel de riesgos inherentes a estas actividades y los factores exógenos y endógenos relacionados con estos riesgos. Igualmente, una matriz de riesgo permite evaluar la efectividad de una adecuada gestión y administración de los riesgos que pudieran impactar los resultados y por ende al logro de los objetivos de una organización." style="whiteSpace=wrap;rounded=1;fillColor=#999999;strokeColor=none;shadow=1;fontColor=#FFFFFF;fontStyle=0" parent="1" vertex="1">
          <mxGeometry x="1550" y="575" width="330" height="175" as="geometry" />
        </mxCell>
        <mxCell id="199" value="Es cualquier medida que impida la ejecución de operaciones no autorizadas sobre un sistema o red informática cuyos efectos puedan conllevar daños sobre la información, equipo o software. " style="whiteSpace=wrap;rounded=1;fillColor=#12AAB5;strokeColor=none;shadow=1;fontColor=#FFFFFF;" parent="1" vertex="1">
          <mxGeometry x="1935" y="340" width="290" height="127.95" as="geometry" />
        </mxCell>
        <mxCell id="201" value="Existe un sin número de medidas preventivas que permiten prote­ger estos tres elementos, como respaldos de información (backups), controles de acceso de hardware y software, programas antivirus, an­tispyware y antispam, uso de firewalls, actualizaciones continuas al sistema operativo, mantenimiento al equipo de computo y protección física en las áreas de operaciones de red (extintores, detectores de humo y calor, sistemas de anclaje, ventilación, controles de tempera­tura y humedad, reguladores de voltaje, sistemas de suministro conti­nuo de energía, entre otros)." style="whiteSpace=wrap;rounded=1;fillColor=#999999;strokeColor=none;shadow=1;fontColor=#FFFFFF;fontStyle=0" parent="1" vertex="1">
          <mxGeometry x="1930" y="481.5" width="300" height="199" as="geometry" />
        </mxCell>
        <mxCell id="202" value="Aproximadamente el 80% de las empresas mexicanas cuenta con un seguro de ciberseguridad, aun así el 44% de las empresas fue afectado por ransomware entre 2019-2020. " style="whiteSpace=wrap;rounded=1;fillColor=#999999;strokeColor=none;shadow=1;fontColor=#FFFFFF;fontStyle=0" parent="1" vertex="1">
          <mxGeometry x="1930" y="699" width="307.5" height="84" as="geometry" />
        </mxCell>
        <mxCell id="229" value="" style="edgeStyle=elbowEdgeStyle;elbow=vertical;rounded=0;fontColor=#000000;endArrow=none;endFill=0;strokeWidth=8;strokeColor=#23445D;" parent="1" source="2" target="3" edge="1">
          <mxGeometry width="100" height="100" relative="1" as="geometry">
            <mxPoint x="540" y="140" as="sourcePoint" />
            <mxPoint x="640" y="40" as="targetPoint" />
          </mxGeometry>
        </mxCell>
        <mxCell id="230" value="" style="edgeStyle=elbowEdgeStyle;elbow=vertical;rounded=0;fontColor=#000000;endArrow=none;endFill=0;strokeWidth=8;strokeColor=#23445D;" parent="1" source="2" target="4" edge="1">
          <mxGeometry width="100" height="100" relative="1" as="geometry">
            <mxPoint x="550" y="150" as="sourcePoint" />
            <mxPoint x="650" y="50" as="targetPoint" />
          </mxGeometry>
        </mxCell>
        <mxCell id="231" value="" style="edgeStyle=elbowEdgeStyle;elbow=vertical;rounded=0;fontColor=#000000;endArrow=none;endFill=0;strokeWidth=8;strokeColor=#23445D;" parent="1" source="2" target="6" edge="1">
          <mxGeometry width="100" height="100" relative="1" as="geometry">
            <mxPoint x="560" y="160" as="sourcePoint" />
            <mxPoint x="660" y="60" as="targetPoint" />
          </mxGeometry>
        </mxCell>
        <mxCell id="232" value="" style="edgeStyle=elbowEdgeStyle;elbow=vertical;rounded=0;fontColor=#000000;endArrow=none;endFill=0;strokeWidth=8;strokeColor=#23445D;" parent="1" source="2" target="7" edge="1">
          <mxGeometry width="100" height="100" relative="1" as="geometry">
            <mxPoint x="570" y="170" as="sourcePoint" />
            <mxPoint x="670" y="70" as="targetPoint" />
          </mxGeometry>
        </mxCell>
        <mxCell id="233" value="" style="edgeStyle=elbowEdgeStyle;elbow=vertical;rounded=0;fontColor=#000000;endArrow=none;endFill=0;strokeWidth=8;strokeColor=#23445D;" parent="1" source="2" target="8" edge="1">
          <mxGeometry width="100" height="100" relative="1" as="geometry">
            <mxPoint x="580" y="180" as="sourcePoint" />
            <mxPoint x="680" y="80" as="targetPoint" />
          </mxGeometry>
        </mxCell>
        <mxCell id="234" value="" style="edgeStyle=elbowEdgeStyle;elbow=vertical;rounded=0;fontColor=#000000;endArrow=none;endFill=0;strokeWidth=8;strokeColor=#23445D;" parent="1" source="2" target="5" edge="1">
          <mxGeometry width="100" height="100" relative="1" as="geometry">
            <mxPoint x="590" y="190" as="sourcePoint" />
            <mxPoint x="690" y="90" as="targetPoint" />
          </mxGeometry>
        </mxCell>
        <mxCell id="vs3Dtrz2g9ymceC9rqFN-234" value="Protección&#xa;" style="whiteSpace=wrap;rounded=1;fillColor=#F2931E;strokeColor=none;shadow=1;fontColor=#FFFFFF;fontStyle=1;fontSize=14" parent="1" vertex="1">
          <mxGeometry x="2384" y="160.9999999999998" width="140" height="60" as="geometry" />
        </mxCell>
        <mxCell id="vs3Dtrz2g9ymceC9rqFN-235" value="SUB-TASK 1" style="whiteSpace=wrap;rounded=1;fillColor=#12AAB5;strokeColor=none;shadow=1;fontColor=#FFFFFF;" parent="1" vertex="1">
          <mxGeometry x="2394" y="349.9999999999997" width="120" height="60" as="geometry" />
        </mxCell>
        <mxCell id="vs3Dtrz2g9ymceC9rqFN-237" value="WORK&#xa;PACKAGE 1" style="whiteSpace=wrap;rounded=1;fillColor=#999999;strokeColor=none;shadow=1;fontColor=#FFFFFF;fontStyle=0" parent="1" vertex="1">
          <mxGeometry x="2394" y="589.9999999999998" width="120" height="60" as="geometry" />
        </mxCell>
        <mxCell id="vs3Dtrz2g9ymceC9rqFN-238" value="WORK&#xa;PACKAGE 2" style="whiteSpace=wrap;rounded=1;fillColor=#999999;strokeColor=none;shadow=1;fontColor=#FFFFFF;fontStyle=0" parent="1" vertex="1">
          <mxGeometry x="2394" y="690.9999999999998" width="120" height="60" as="geometry" />
        </mxCell>
        <mxCell id="vs3Dtrz2g9ymceC9rqFN-259" value="" style="edgeStyle=elbowEdgeStyle;elbow=vertical;rounded=0;fontColor=#000000;endArrow=none;endFill=0;strokeWidth=8;strokeColor=#23445D;" parent="1" edge="1">
          <mxGeometry width="100" height="100" relative="1" as="geometry">
            <mxPoint x="1170" y="110" as="sourcePoint" />
            <mxPoint x="2450" y="170" as="targetPoint" />
          </mxGeometry>
        </mxCell>
        <mxCell id="uQ-FMA4ni5SMKxAk8EgQ-234" value="" style="shape=image;verticalLabelPosition=bottom;labelBackgroundColor=default;verticalAlign=top;aspect=fixed;imageAspect=0;image=data:image/jpeg,/9j/4AAQSkZJRgABAQAAAQABAAD/2wCEAAoHCBYWFRgVFRUYGRgaHBoYGRkYHBocGhoaGhwZGhoaGRoeIS4lHSErHxgYJjgnKy8xNTY1GiQ7QDszPy40NTEBDAwMEA8QHhISHzYrJSs0NDQ0NDQ0NDQ0NDQ0NDQ0NDQ0NDQ0NDQ0NDQ0NDQxNDQ0NDQ0NDQ0NDQ0NDQ0NDQ0NP/AABEIALsBDQMBIgACEQEDEQH/xAAcAAAABwEBAAAAAAAAAAAAAAAAAQIDBAUGBwj/xABFEAACAQIEAggCBggGAQMFAAABAhEAAwQSITEFQQYiUWFxgZGhMsEHE0JSsdEUI2JykqKy8CQzgsLS4fEVc7MWNDVTY//EABoBAAMBAQEBAAAAAAAAAAAAAAABAgMEBQb/xAAkEQACAgICAgEFAQAAAAAAAAAAAQIRAyESMQRBURMiMmFxkf/aAAwDAQACEQMRAD8AwcUdAUK1Mg6VZuFWDDcaikCjoGnRrcMbd4LcTR1+Jfy7qpeNlc5y1DsXCplSQe6ivSSWJk86zWKpWjeWflDi1saJoqOKUF51oc4hqKjohvQAGoqNzRUwHbXr3Vtejds5gGYajZeXiax2GQkiK2fR/CkSdyauK0RI6dgAMgAqTUPhraAdwqaRWE1s3g9DV3asDibZbitqBqEc/wAjD51v7u1YhP8A8qnaEf8ACsl+SLf4s5hxUEX7oIg/WXJHYc7VY9DBOOw3/uL7Sar+LNN+8Tv9Y/8AW1WXQcf4/C/v/wC1q3fRiuz0JQoURrM0DoqIGhQAYrm/Spv8c/ci/wBIPzrpArlnSi5/j7/cq/8Axp+dA0bHoYv+FB7Wc+8fKrZxVX0NH+Dt9+c/zNVxFIRGRCTSnsVKVaMimBGt2+2lugpymMUdKBEdn5U7Z23qJb11qbaiNaYHm6gKFAVoZh0KOKKgAxTgem6FMByKQzUuYHjTVAAoChQpAJNChRUAS8K0EVuuBXxoWhRHPb0rHYPheIKh0tOFOoZgEBHarPAI7xVzw3AXAes1sd5vW2I8lcmtIyVURKLZ1Hh2KQgQZq1DaViOFY61a0uXQT2Ktw/gkVdt0msgdVbjeCqP6mFZTXwawv2W9w6Vi1McUU//AM3/AAq0TpMjtkVGB/bZV/pzVnOknFBhr6YkW87MrIP1nUUc9BbBJ86yUfuLl+OjnvEGm7cPa9w+rk1bdBv/AL/Dfvn+h6e4Hdw17Eql3DIi3Cetnuk5jJH2wu/dXTcB0Zw1p1e2gV1MqwVCQYIkMVJGhPPnWjdaIin2a7NQqpZIEs7+JdlHsQKp8bxvD2zD3bf+u4p/qaopvpFmsZwNyB46Uy+Ntje4g/1L+dZJumHD0Gt9J/YVn/oU1TcV6dYMghGuOe5CP64rSOGcvT/wlzivZs7/AEtwSSGxNvTcKSx/lBrn/GMXhbmIvXhihluQFC2rjMIRV1kKPs9tYHHcRVnZkRoJnrZQdfAmo4x7ckHqT8q0XjT+CfqI7FwbplhbFm3Zm6+UQXyKo1JM5c5PPvrbJcDAMpBVgCCNiCJBHlXm3C4xywDZYPYD5c6730MvZ8Dh2/YyfwEp/trLJjcHTKjJSLpWpRakZaIioKDL0zdaRS8tDLQIjJbIp9VparTgFOwo8zxQAoUdaGYa0CKApU0AIoUZFHQATmkmlIhY5VBYnYAEn0FaDhvRhmhrzZF+6sFj4nYe/lSckuxpN9Gc+WpoTXXuCcFyjLaQWk5sfiPeeZ8zWd6e3cEUW3YYPfV5a4qqRlhgyM4+LXKYExHKlGVsbjS7MEafwCA3bYYAqXQEHYgsJB7jSL6ARHMD8j7ikI5UhhuCCPEGRVEhYm+WYvcaWYyWY6k1M4bxhUEFhHmfwFQeKoA7aaBz6ZiPwNQ7NxQI5wOXZ/3rXRhwxmrZMpNdGlucetbgufBT84p230oUCBac+JVdt+2s5MyADzG3ImV96Vqfs6a8+0f9zXUvEgZvM0W7dIHzhlthSDzYn5CmuLcev30ystsCZGVWmfEsarXB3O9OWyNe3l6g/I1ovGxr0Q80vkj2XcHNmIKwZEaa6EVcvxTFORmxN6Cub/McCB2hSOw1VZ1BiDEEcucn5j0q/wCAcGvYlQUQBAWBdyQpBkELAkkd1PhCKtpIlynL8SrvWGYS7FiN80tzykyT2/jRjCAZtNpjbsYiR3gVtLnQm4VaL6SZPwMIkgwGzHTQcqznFuGX7Bi4sTCysZW2Aynzjkde+nHJjlpMzlHIuyDcw8EREajn27+hFMGOp45dt9Rrr/elE9p2IHeUEnYidKSmCzCZ3jyLRlB8cw9K0tCiq22RwBzOxjcdkct4gUqV8de89h/Ee9SWwhAMcv8Allb8R6001vVtfshl9FYz6moaNFJPoVhApdRBEsOzwj3ru/QAj9FyDZHYeoV/xY1w20kMpHMEjyUMG8dfauyfRriAyXlHIo38QZf9grzfMW0zp8dppo2ZFJIp3LSStcZ0CIoRS4oRQAgJTgFAClUAeYqFdQxfRPDXRITIx+1bIUfw/D7A1k+MdD79kF0/WoNSUBDgftJr6gnvirUkyHFoztCiBqbwvhz33CIO9mOyjtP5VViIttCxCqCSdAAJJ8BV/gujLGDeOUfcWC3mdh5T5VrOGcEt4dJG/wBp2+Ju4d3cNPGqTjnHFEoh15xqfM8qylNt0i0ktseU2bAyqAvbGrHxO58zTJ6TIhkLmPYPm2w8qyl6+zHU+X59tMk0uF9ic/SLni3SS/fBV3yp9xJCn97m/np3VUg03NKFaJJGbdhX9gfEfP50w1SLg6vn+M/lS2sqzaMoEDn3CfeqSsLI2PE+aofPKpPvNRFuqDAneNBy2/CfWra/aAKiZGWJ8z+YqAXjYHYevPbu2rs8XpoyyMdRiTMHWImezuB76cNlojKQOWniNSSO2ncIjPplIWI3IG48Oz8akm3A1yiO62p98xrvRxymk6IiqAORnwJ9ppCW9fX8CR+FWVmTzJHcXP8ASoFLfAg/Dod/GP75egp8jGWRJ7GuG8IF28iR1d2PPL1pHj8IHjXS7GIt2LYzFURAFEkKoHICayfQrClXvM+8KBrJ1JJP8oqN07YkogaAqs8feOYL7DN61w5l9TKoXo78LrHy7Lp+nliYyPHbpPmo2O/PlU689vFWjqHRxuPx7mB9xXMlwi5kkmGgHb4mVWBHdLbd1av6PTOe3rHxknXXqjy0PtRlwRhHlH0EMvJ1Ldmb4khtXnQgkh1YHYEbzsdw0+VFauGNAIGp56AysnuPPwrY9NcIisr5R1lYGYmUIKkepHnWc+tAJLEdZVJjmcpVl02PWNdWJqUUzlyyqTil0Q87HQgnqknQaruWmP2QZ8KjtadtQCOrprErMBRHae2pAvAlCxJhSG08YAk66NFNHEKqqNSQTzA5qy+6+5rRp0KNp6QkYJtBmXmBEnYw0bbHlzroP0RYwfXXrc/FbDDvyMB/vrnf/qB5DbnBMGSSfOfatb9GN4pxFFYZS6OkbfZDjT/RXn+XF8U2dnjtqVM7fQo6FecdomKGWlUKAExR0dJZqAPPfCukV6yRlfMv3H1HkeVb7gfSa3iIT/Lf7h5/uNz8N65RSkcqZUkEagjtGxq3FEKTR0LpH0SN9w+GCK7HrqTlVueYdjdvb4zJcOv4bBWgrtLbsEEtcfsB2A7yRp31SP00vFVCqqsIOcksZHMDSPeqZL2ZHU7ghweZjRvY+1Kn7ByS6LbjfSa7fJAhE2CKdY72+QiqFjTTPUvhuCa8+RTBOxO08gezx1p6iiUpSdEUmipBaplvBsbbXRBVSAwnrDNoDHMTp5ihtIFFkcUpRQApxEoJFJZZhCjXfly8fOpFi9lOV7aN3EZG8jsak8Nsgus7HQ+YI+dPYi2NRl05jcR3dla49pktlXxJkhTbBA1zKwgqxjT0FRv0mdlPkY232BPf507ix1SOwqZ5wJEHwzVFsuw0UTrPPsOmngTXR4z+9ozzJNJkzC3GXcdm+bcjtMdn9xS3e5uCADB0AX3qIUYEZgJEaDXbXt76VcuMIhVGnOB76V6SSONxth3C25YnzkU6nFSujCf759v499RnxLEauo/m94P40xbRddSxjTq6E+Z+VD/YfTTX3Gv6GcUDX3Uj4lzfwsN+/WpfTPBXLj22s285CuraDQNljcgferT8P4YlpFRAFUAAAc+0k8ye3vp3EJEeEV5Usq+pySPQhiShxOf4LonjGCkqqZfhzOsjluknkPStR0e6N3bFz6x7iEQwKrmMzzkxzjlV/hbmkU+XpT8mck46oI4Ip2VfG+CpiQgdnXJmgpl+1G+YHsFYHifBxZuG2zM/VUq22jFxmgdhQDzrp5esN0/Vg9t1MAqyHWPtc+7ritPFyS5cb0R5ONOPJdlKuGQfZG7b6gENlSZ5GG33qDjPhbKqghlb7MyVOYRzAblUa8rdaWEoQsd05ZBPLb1p39CXMVzsRlRgYIBDhCTB2gOfSvQOKMK+5sPGmXc5lhjn0kjMSGI8pYVa9FMUq8Qwzg6G4FO29wshGn79VT4VRspkEaE9zCDH7S+9OrcFu5ZcAAW3Rx29R1Yz5g+tc3kq8Z0YZJzTPSNCs9humGDdmT69VdWZCtyU6ykggFtDqORq9t3AwkEEHYgyD515B6I5QoUKACqj45iYZVzRAnxn/wAVO4txO3h7bXbrZVHqTyCjmTXD+kXSO5irzXJKLsig7LyntNNKxXRnmoUDRGtCAwaMPG1Jo13oEBFmpq4nIhVD120JH2V5jxPtQuOiJCmXbn9xewftH2HjTeEw4YEkgARr3nlUt3tmqVOl2M2rM67Adu1XGHxKojgoCjoyBTBJaNHnlDQfLnTa2Y6rgyPgTYTOrN6edSER8QEsWbRuMpzF1A0BBEFtgviQNNKzbtl1xi/kqkSrvgvAruIaLaEgbsdFXxb5b1sOj/QNEh8Swdt8iE5B+827eAgeNbEZUUKqhVGgVRAHgBRKRlHG32YDjPRhsNh/rEuZnQhm06pA3Uc/OqV7YdQyaBgG37eXlrWp6Z8aRLTJPWbSOdZ/olY+uw7R8SOV1IHxdYb+Jq8E7u+gzY1FKuzO46zAYRyPtDT/AC1WWmIJhZ0n08x210PE9DbxtXLzukIjtlXrEwDIJ2Glc6tzOnMc/wC+6uvDJfVVHPki+DsluGY9aBr2jsHbNIayvOTsNTA7eZBowWGpYDnoQO77K/3FPG3mAMZvJm8NiNPH22r09nA3TIzsqjqqs+OaPUU7gbGc5m0HpJ3juowFHNR4fVqfYM1SEu5QWaY5TmM+bR7COfZTd+hSbrR1bAOGtI3ain+UUeJWV8Kp+iOMz4ZJ5Zl9GYD2irwrvXizXGbX7PVxu4K/gxnSq84yIJCEMTGmysdT3HL61d9FcQ74dGfUyVBOpKjQanemeO8PN609sEBpGUnkVYHsPKfWrDgODNmwltmDFc2omNWY8/GtZSi8KXuzGMGst3qiWayX0goDaRoJ65TybK5/+Otdcqk6VW5w5bTqPbf0cA+zGpwOsi/ppm/BnOJJZitvVgF11MjWR36A0+TdJXqgSmVdFEoJWZjXURO9SGddmcHbbvUqx03+yfKja+jR8ZMvOn2WgiDPI67c69ni/g8nnaeivvK5Orbrm1J1Akeuk1HxOHC6ZpJ027JB+XrVm7zDBdetufvSdgJ5mouKVissIAA5RMneT5+lY54/Y/4aYZvkiw41xPNcOZEcFUfrDX9Yi3NGGv2qb4fxJUM27t7Dt2oxZPNZBPvWy4L0Js47B2b4uPbulMjEQyk2ybYlT3INiKpeJ/RxjbZORVvKOaEKx/0sfma8XR62y64V0vxyjqvYxajlIS7Hh1dfI1ruBdLxff6u5h71lwJOcSnk2hPpXGrHA731q27lp0M6l0ZYHMgkQfKtBxLpE2HH6PhrjNAhnZi0HsWalrdIpPVsvfpFxqXCAz6IOog5tzYj2rmpo3uMxliSTzOppNUlRLdjdChNFNUSLRJpx8oAjU8z8hTE07YuwZIk8u7vpMuLQnLG9S8OuXrsNdIXlE7nspzDrbgksC2m5AHgJoLctEw7NE6xt/3UNtmiSjux3H4g3nCW07ASBJY/l+VbPh+Nbh+GASw9x36zBFOVANi7Ab91U/B+NYPDnMqKzfedXY+WgFXp+knklsEdyN/zFZ10q0O+3e2SehHSa7jLrq7W0yiVQKczDWYYmNNPWtricCSN2buDBfeK4/xTjn1t1L9qwyXAMjZEyq66ZZEkhhtPZU3D8dx5+BHEdrkfiaGv0G/k29/oRhrhLXLILk6k3HM9p5Va8L4OmGtstlbaLqxyqxJOXdmLEtrHlWGs8X4nGpRf33+UTVlwriOLe6iXrlvKZzBC7EgCdzAAmPWm20uhcbZp8TdZkdCZzKy7DmpHzrz0QVcgbgke8V6EVxXCOK2guJuJsBcI8BmrTxpVNN/KM88ftG0w7spMkgaEjblHyo1t5dDr+8F/3H5Ve2+GDXKxZRqwk6kbToAPlrVVicMzOTA8tvKvooyjJ0eRJjS3eWb0JHsoAp/FLZNlco/W5usTO2+1P8JwPWJdZUAzppoCd/KoeKshXZYJgkehp8YylS9E3WzYdB736l1n4XMeBVfnNalL871zzo3xEWGcODkcAkjcFZ1jnpNaJuklkfCHaZiFjUDbrRXmeT48nkbiuzsxZoqKtl5e3pVq7WVv9Kt8qDQxq0ncfZA7J58qj2uL37hYLctpoAPhHW0+/JjfXvrN+NKKuVJftlryIt1FN/xG4BB51TdJb6CyyMQWeFVRqZkGe4CN6zeKTEoR9czKhA67PNs6yCpSVbloNTSrnAmCqbNxbjAZymUpchtZUEkP4Az3GtIYscZK5r9Gc8uSUXUWVduyIU5dfY/GI071HrS7dsA6wAGE+BnQzTIVjoTEkkDlI8Kc/RwBLNHjprE/3416jaXbPKabF38SqDrExIELvJAJI2HL3pm/xTDQVFh3G/XcKNo2RZ/mqrx10F4X4RoD29p9aVaxxRcqIgO4copuDbZyJFeR5GaUpNRej1fG8aMYqUls2PR7pu9i2tq1hkSyCxnM7QWMk53bUySYnnWm4L02S7dyPeyE7Ap1CezNIM+VcjxGKdzLuzH9ok/jTuAwb3GhB58hXE17O9P0dq6ccSdMI/1a5nYZZA+FT8Tjyrh4rR8Q6T38gs5hCjKxHPlWcZpM04oUqDFHRA0dVQhmioUKCQ6KjoBaABS0We3yoIhp+2v7XoKTZSRKweCZvsGtFg+EnQnIPE1S4TFZTo8eI19zV5b4yBuC/wDpA920rKTZtGkWmGS2pgnMexZ/GpmTSeso7zVTb4/A0RR+82vooP41FxPFHIJzqO5V19WJoHY/xXEqi5lMkVnuG9J7ti610KrkqUh80AEgmII+6KjcTxZbcsfOPYaVUmtIxVbMZSd6NqPpIxH/AOmz/P8A8qyvFsab11rxUKzyxCzAMxpOvKolKOw8T8v+6FFLaE5NrZ0BFzop2VgD1RGhAPfPLah+jETkAjtjXx00NN8I4hOGtjINFCl5ickDc7bUnE8RUDV0HiwNehCTrejzZpKVLYm5eOoEse0ED+kE1U3cIJJZwPc+5n2o8Xxe3qJzHtUGPeBVY/ER9lPU/lXRHPCK7M3hnL0T1RBzdo7BH404hWcqos8g7Fj4gedU6Ym4+iL/AArP50zikdWGcMGgEToY5RWc/Mivxt/00j4sr+7X8JuJ4i6syqAsEjRQNveoz3XIDkzFRZp2zcjQ6qdCPnXBkySm7kd2OEYaRvWxgu4a3kQEyCySQrFdDlP2TzrWcPFtwrxBygQw6yxpB8COVc14Rc/UOhmbbpcU9zdU+WgrpPBsSl60txeRZW7VM6TXK9M7O1ZjukPRLEvibjW8otO2dGzBQMwGYQNdDPtSsL0BaJuYhRAk5FLQBvJMRXR7UiJCsOUifasp05PEGwzhRb+qM/WLbDZwg5ST1l5sRGmkRNbfUctNnP8ATiukckFTMNgmfKqKzuzBAo+82qg89lY/lFOJggttnd1ViBkT4y06zKnq7Rr21t/owdEZ0Z1+tuD/AC2BEBMwykkaNudJ0ilJ0girdG34L0SwtqwLTWbbkhS7OofM4G8tO0mOyay/0k/U4SylvD2ktvdYyUULCKOttpJJUeE1f8a4xcsAfVLJBhlYkwIzDLrsRt8qwfTTj/6RlV1AKgjTtqE9ltaMTR0VGK1MgxR0YoUDGgKOgBS1WiwSEAUtUNLy0oRSsdBKnf8AhTqWTy99aSjAU4t/spFKh63ZYbwPDSn/ANEb7485pFh2b/ufwFSrVlwZIzTsB89DUNloRZwbHsjx/s07eslQZX5j1qxw94x8AURqZJ08vKpFpJ1zLlPKCPTUQaVsDIYy0x+yahjCv901vxg0PJfEmT5e9GfqhsVWO3/xVKTI4r5MEuCc/YNKxGCdFl1IBIifP866Ct60dVUuJmQpIB9Kh8XxeGKMlyO1QWlkYbMMmb0I2kU03YnFUYzC4C/cAFu3cdeWVWK+u1T/AP6UxYGZsO4HdlY/wqxPtWg4J09KkJiVzKNBcQQY7Wt8/KPCt/w/G27yZ7Lq69qnbuI3B8apyZKijluB6FYl4/VMB+0VX2Jn2q7ToWlkBsRes2xO7mdewZ8usdlbzHYFbyG25fKSD1HdDp+0hBju2rnHG/o/u2wz4d/rQTJQwtyNdZmHI07DRyDiWZv8NsrLYh7vKLa9UHsJAAE8utryqh6X8Rw11ESxh3R0Ml3YZgCNUZQWkGQQc3Las9fR0JturK69U5y0qBqqhY6u53kdblVjwfEhSvUVmXllEc9T3679wpsCvwnCb9z/AC7Lt4KY9TpVnZ6HY1jH1BHezIAP5q3vD8aWIZdY7Nu+Kvv/AFBV+IxH4VLkUoo5/wAK6IYy0xJto88s4iBrqJ1roPAsM6Jle0iE7hYg+lTrOJVhoy+FPqx5j0rNrdmnLVFbj77oyhUlNiRuPKpLkZTIBkag7EHlU3cVU4fCXLqXBny5iQrROWdNO00CuzhWPVQ7qnwK7Km3wBmyz26RrWh6I4fK/wCkuVVLeaWJMuTOvPtjl61u1+jPC7u9xj3EKD7E+9c/6Yslu6cNYBFtNDqTmbvJ7KvvRCuLskcd6YPcYi0Mi7ZiOseUjsrKu5Jkkk99FQqlFITbYBR0KFMQKFChQAJpQahlNLtgFgGaBzMTHlzpDE5jRCnXVZ6pLDtIj2paYZjqB7fM0rHQ0vhUi0h7hUzD8IuN2Du3PpWo4T0Av3ILt9Wh+8oDHwXf1IotAkZlGy/bX02rWcC6MXr4VzmROTOIkH7oEMfwrZcF6HYXDkMEzuPt3OsQf2QdB+NaKppFWUWA6LYe2pDJ9YSIJfX+EbL+PfT1vo5hlM/V+RZiB4a1bzRE0CM3jOhmHcyDcTuVpH80ketOWeh+EQg/VliObMSTzk/9VfE0k0wKnGdHcM6lTaAnmhZTt2g1heMfRg2rYa/PPJdGv8aj8V866fFHQmJqzzvxXgOJw3+dZdB9+MyfxrK+9R8BxC5ZcPadkbtUx5HkR3HSvRzLOh2rNcY6EYO/JNoI5+3a6hntIHVPmKrkKjNcB+kFXhMSuVts6DQ/vJ+XpWg4lj/1TXLTKygTmB0Hj2VieN/Rzfty1hxdX7p6lz/i3qPCsncv3rYay5dJ0ZDKkgciOYp0mK2hXFOIvdcuzFuQJ7Ozwp/g1qWltto7fGqsVZ4G8ZVYnuo9AdI4dYZ0XKAANo0q1w3DUXrOd+3vrH3ulC2EVEhngT2CqC/xfF4lgis7EnRU03NRRVnYsNbsiMuXu1FT1kDSCK5fw3oLinWXxGQ/d1YjzmtRwrhOOsCDfW4BsDI08TRQWaxCDUhFAGgioeHZiBnXK3dqKlNcCqWYgACSTsBUlFb0k4suFw73WOuyjtY7Afj5VwLiOLN12cjUmfWtD086THF3siH9VbJCftHm5+VZSriiZMKjoUKokFChQoAFFQoUAKWDTiqOyhgcFcvOEtIzufsoJ8zyA7zXR+jv0akgPjGjmLds6x2O+3p60noa2YThzOzZLVrOzbKFLHyA2recE6B4h4bEuLS75FhrnmfhX3roPDeFWbC5bNtEHPKNT+8dz51NqG0UrK3hnBrOHEW01+83WY+Z+VWVChQAKTSqQaYBzSZoUKABRUdCgAChFCKOgAqBo6BoAZuOANawHTzH4O5h7i5ka6sZCPiDAjTwia3WKWVM1w3pjhQmIYqpCnmRAJ5xVRRMihFSLV0pquhPPuqOKUuppkknDWWdwqgljXVujHB0w9sFgM5+ImsJwXG2sMpcjNc5dnhRY3jD3XzX3YD7KJppUspHYXxQQAkEz90TUmxfDjmPHSuZcI6X27KhCH/1MWPn2Vv8HjRdth0IIYcqTKTJb3Qp+Oub9OulzPOHtN1dnYc+4Uvprx/6v9Tbbrn4yPsjs8a54xnU04oTYVChQqiQUKOioAFChRUAChQoUAejuG8NtYdMlm2qL2KNT3sdye81MmioVBYc0qkUdIBQoUKFAANJpVCgBFCjoUwCoUdCgAUIoUqgBNJY0ZqFxS8UtuymCAdd/wAaYB4t1VSzsqqN2YgAetck6c8Yw105bMuwOrj4B3AnfyqvXH3MUWbEO1wqTlDHqjfZB1fameIWljYU+tEvZQ0pTFE29HTJFo8U9+kkAnKJPPnUY0u9uKBiJnWtT0U6VHDAo4JQ7fsn8qyoo6GgTLLjeVrjOj5g5Ld4nlVdQoUIAUdEKOgAUVGaKgAUVHRUACgTQoUCP//Z;" vertex="1" parent="1">
          <mxGeometry x="165.27" y="250" width="129.47" height="90" as="geometry" />
        </mxCell>
        <mxCell id="uQ-FMA4ni5SMKxAk8EgQ-235" value="" style="shape=image;verticalLabelPosition=bottom;labelBackgroundColor=default;verticalAlign=top;aspect=fixed;imageAspect=0;image=data:image/jpeg,/9j/4AAQSkZJRgABAQAAAQABAAD/2wCEAAoHCBISFRgSEhIYGBgYGBgYGBkZGBUSGRoYGBgaGhgVGRocIS4lHB4rHxoZJjgmKy8xNTU1GiQ7QDszPy40NTEBDAwMEA8QHhISHjQkISE0NDQ0MTQ0NDQ0NDQ0NDQ0NDQ0NDQ0NDQ0NDQ0NDQ0NDQ0NDQ0NDQ0NDQ0NDQ0NDQ0NP/AABEIAKcBLgMBIgACEQEDEQH/xAAcAAEAAgMBAQEAAAAAAAAAAAAABAUCAwYBBwj/xABDEAACAQICBQkECQEIAgMAAAAAAQIDEQQhBQYSMVEiMkFhcYGRobETUmLBBxUjQnKCstHh8BYzQ2NzkqLCFPE0U4P/xAAaAQEAAwEBAQAAAAAAAAAAAAAAAQIDBAUG/8QALREAAgECBAQEBwEBAAAAAAAAAAECAxEEEiExIjJRsRNBYXEFI0KBkaHw0RT/2gAMAwEAAhEDEQA/AIQAPbPigAAAAAAAAAAAAAAAAACz0doSriIOcHCyls2k2neyfQnxKPTepuOnUcowhJWSVpxTyXxW6zvdTv7l/jfoixk7tvrOSdaUZNI9zBYeGVT82j4xU1S0hHfhZ9zhP9MmQ6uhcXDnYWsv/wA5teKVj7mB/wBMuh3+Gj4DVw84c+E4/ijKPqjVtLifoM01MJSnz6cJdsIv1RKxPoR4fqfAzotB4+62Jb1/Vz6bU1fwc+dhKPdThHzSIz1TwF9pYdRfwznD0kXWJj0Ma2G8SOVnLA7H+z2F3bM12Tv+o1y1YoPdUmu3ZfyRPjwPJfw6uvJP7nJA6mWqd+bX8YftI0S1Sq/dqU327UfkyfGh1MnhKy+k50F3PVfErcoPsn+6Rolq/il/hN9koP5lvEj1M3QqL6X+CrBNnovER30ang36EaVCcedCa7YyXqi10UcZLdGsBsElQAAAAAAAAAAAAAAAAAAAAAAAAAACTo7C+1qRp32dptXte2Te7uOi/sjH/wC5/wCxfuctgtKxpzjNQtKLuvvLc1nu4nUYbW+EufFd0tl+Ev3Mqkav0HdQjSSaqo6LQWh1RpuCm5Xk3fZtvSXHqJP1avf8v5Imj9YsM42c3F3+9F28VdFtQxEJq8JqS+Fp+hwTzp8SPbwzpZEoNfkifVy9/wAv5H1cvffh/JPBTMzpyog/Vy9/y/k8ejl7/l/JMr14U47U5xjHjJpLxYpVYzV4SUlxTT9Bd2uRpexE+rl7/l/Iejl7/l/JPPBmZOVEH6tXv+Q+rl7/AJfyTgRmYyog/Vy99+H8mSwLX+I/AmAnMxlRGWE+Ly/kyWEXveRvAzMjw49DT/4i97yI9aOy7XJxU4+XLfd6ExbKSpRtoZypxe+Kfakzmtb8PCEIuEIxbna6iou2y8si8VWXE5T6QtJunSpPZveb8oG9HnSOPE0HKnJLVlECqpacpvfkT8PiqdTmSud9jwp0akOZNG4BgGQAAAAAAAAAAAAAAAAAAAABWVFaT7WYm3ErlM1GyO1bGUako81tdjsSKWkKkXfav2rPxWZFCAsmdDg9bcRDLbnbq5a8J3t4lzS1/lGPKpqb6Er03370cVKmrNxknberNPwNRlKjTlujWFapDlk19797llpPTeIxM/aTqP4YxvGEVwS+bNVHSVSDupZ8dz8VYhA0UUlZbGUuJ3lqzpcJrhiKe+Umu6f6s/MvMHr5uU4RfY3TfndHz4GcqFOW6NYVqsOWT79z65hta8NPe5R7VtrxjctcPjqNTmVIy6k1fw3nw+Mms02uzI3Qxs196/byvUwlgoPldjphj6q5kn+j7oYnyDCay4ilzZtLgm7f7ZXReYTXuosppS/FFRfjDLyMJYOottToh8Rg+aLX77a/o+hg5jCa6UJ86DX4ZRqLzsy4w+m8NU5tVJ8JXpv/AJWOeVGpHdHTDFUZ8sl27k8qcfz33ehbRaaummuKzRU4/wDvH3ehWO5rLYinDfSk/s6C+Of6V+53JwX0pvkYdfFP0idFHnRlPlZ87L/VmPPf9dBQHSatR5Mn1noHnYx2osuWACDxAAAAAAAAAAAAAAAAAAAAACFjVyl2Ecl41bn2kQ1jsdcHeKABlS5y7V6kljKjG91xjZdGd0zGVOUd8Wu4xks32mcJyXNb7gSZxjDZTldNt5qzWVujvNLN8lKcU0rtN7rLoXQao05N2tnw6SEGYg9cGt6eXceEkAAAAAAHhuhiJx3SfjdeBqABY4bTNennGVuuLcX5FrR1sqX5bb/Ek/NWZzIKyhGW6JjKUeVtezPoeidMKu9nZW5u6vvVsrM5X6U3/wDHX+o/0EnVCdppfE14x/gh/Sm+Vh18NT1gckoKFZJbHp4apKdJ5ndpnAnT6vR+z7/mzmDrdBRtSRuc+OdqX3RYMAA8YAAAAAAAAAAAAAAAAAAAyhByyim3wSbfkTaOhsVPm0KnfHY/VYhtLcsot7K5U4xcnvIcGvvK/Y7HW/2QxU42ahG/vTv+lM30Po/n/iYiK/DBy8216BVqaW52UqNTLscdswe6bX4l80exoSumrNXWaaZ9Aoah4Zc+pUl3xgvJX8yxoaqYKG6jfrlOcvmVeKh5XZ0LDye58uqRg2+U07verrfxRlGLhGTUl93OLv0kjTmjZYavOlLNJ7UG/vQlzX29D60yFT3S7F+pG6d0mjFqzsJ1ZStfo6rM9rZy7o/pRhBNvLeTlHc5cp9aVvAko5WWpHpzkk1tLdkm087rjluuRqlRQ56cb7m1yX+ZZFzCsllKnCS4OEV5pJoylo+FSLdDJ25VOXKTXVff3+RVysTGcXoylJFOjJPNZWee9bmQqqeHvOMb027ThJXcHfo6iZSrwykk1f3Xk+5k3uaOFtb6M0mbg7KWdnfo3WZgbdtqMbNrnbu1FmZo1A9bvmeAgAAAudWp7NRdsfW3zNH0pP7Sgvgn+qJhoedqn5b+DTPfpRlerR/05Pxn/Bz1V82L9Gd2Cek17HDnYaIjalDs+Rx52uj42pwXUXMse+BL1JAAIPJAAAAAAAAAAAAMK1VQi5y3RV2cvX0zWk7xlsroSV/U6DS0HKlNR37N/B3ONB6mBpQlFyauzp9A46dRTVSV3GzWSWT7P6zLY53VmylNtpZRXDpZeyxNNb6kF+aJBzYunaq1Ffos/o40nKWNrUp5KVN7K6E6c/W0mz6efEtXMXGlpSlOMk4znsNppr7RONvFo+2nJWVpHrQtkVlbQAAyLA8nNJNt2SzZ6U2l8Xd+zi8lzut8C0YuTsUnNRV2c7rbB117WKtKnzfwdK7enxOQ9qtlNwTvdO3J3WfQd80c1iNX5uTVNxUNpyV28k7ZWS6Gn4HdTaSszz223cqqEI86KffZ+BuLmjoLLl1M/hio/wBeBKp6HpLenLtk/lYtnRjKDbORwukIVJyhFO8d90luduJNp1HFqUXZrcWeltG0aUFOnRhBufKaSTacZZN73nYqSYu6FVRUuHREzStKNSCxCjlJbFWPFPK/9dRyuGTpTlRk9zvF8VvXkdfou01UpPdOL8d3zXgcnpW8J0qvSm4S/K93g2QtH7HVQedZevcsJUo7tuzy3p9KvvR5UhaKzTzluafA8rRz42Ub+CRrNEjFgGdWns261nw3mBJFgAACTo92nHruvJj6Rqm1UoP/ACIvxkzXhZWnF/EvU068zvUo9VBLwqTXyMqi4kzqwjtOS6rszmEjuMMrQj2HFUleUV1r1O4prJdi9AU+IPSK9zIAEHlgAAAAAAAAAAAFZpbSnsuRBXm1fqS49bOWlK7u+kl6Vq7dWb67LsWRDIPew9JU4K273JFDBVZ5wpyafTbLxZOpaAqvnOMe+78jRo/SlSjyedD3X0dafQdHhtJ0ppWmk+EuS/MkyxFXEQ5Vp13/AL8FFi8K8JOnOMtpqSnutZxaaP0FQqqcYzW6UVJdkldep8P1ihtUlJfdks+p5fsfVtR8V7XAYed7tQUH2wbh/wBUc2IWiZph6jqU1KW5u05p2GFSjs7dRq6hfZy96T6EUOjvpApyqqjiqXsXJ2jNT9pTb6E3ZOPbbwKnWGo54iq30T2V2RSS/rrOY0vh1NNdV12otChFx13OeGKbquL22Ps2kcX7OOXOlu6us54otTtJTxGHSnJylTexd5vZSTh5O3cXxEYZVYmtJubXQAAuYgA8b6OO4AgabhejLqcH4TV/K5zRba16Zp0Kbg1tTmmkuC6Zv5Iqma09jOtFpJ9bk3RH94uyXoc3rHzW/wDOnbwZ0ujpezU6r3Qi7dcnuXp4nKaavJUqa50pOT/M7L5h7s2wq4kTcJZrPK8M+ng9xup0VtLlRkulbn4M1+1klst9Fs1nb1MIWvyr26jUq3qSas5NOLjs2Sy6OcsyKbrRSlad+TazTT3p9hpCKsyUJWvZ242MTe4TSi1fK+cXfpv0GmU297uSg0IOzT4Mh63SvVj1Ul+qT+ZKI2tMbulPjTt4Z/MrNaGuHdqq+5T4RXqR/EvU7ZHG6PV6sPxfI7MzK/EHxRQAAPOAAAAAAAAABrxVXYhKfuxb/Y2FZrDV2aVveml3b/kQa0Y5qij1Zyt75k7Q2F9rUSa5MeVLsW5d7IBd6tVUpzg/vJNdq6PMk9uvKUaUnHexYY3QtOeceRLq5vev2Kmegq63KL7JW9TqQDyaeMqwVr39zkKmjsTCLvCWzvaTTWWe5M+j/Rxp2EZ/V0VeKi5xmm3tTUYuqmnzY32rdnWU0ldWfTkbPooqKGLq05JbTpuz6eRNXS7U7/lRlVV4M9HC4h1VLMti81vwTp13UtyaiUk/iSSlH0fecpj8rN+6/I+pawOnOHspRUr5/h4NcHv8ziMbq17RpOs4w6UoLba4bV7d9hRnwq5xzpJVtHoRPo+pNUqk2spT5P5Y5+p1powmFhShGnTjsxirJfN8WbwaVJZpNgA8b4goU+kNLOlWjHJwUWprp2nnFruXmVuO0g6rU7KKhfZ2ZbTV98nuayyK3G4n2k5z96d12K6XlYim8YJEN30J1ahTq2c4qVt189//AKN8Kd+CS3t5JdrIlOKSezOL3WT5L695rqSksnFX69qXfa9iTPI/N6EzHYuGxsp2pQd5S3OpLqXoijwkHXqSrTeylzFnuW7wRIlh/aNupJz2VeKyUVmt0VkbaUlF57rNZdasMp0qUYRtHz7G2c5pZyjJbuiXrmjVTjdpcWkbZUVeymr8Hyf4EKMoyi9l22lms1v4otcydzVKDjzk12poz5D96P8AyX7nka0o3Sk+zevBnvtU+dBPs5D8svIEGcKLTi4yTzT37LtfgzTOEo700e1JRdtm9krZ24t/Mxcnuu7cAg7Hhq1iV6NGXBuPl/BtGl47WFT92ovO/wC4lsWpO1SL9Sl0PG9WJ15ymgo/ars+aOrMiuPfzEvQAAHCAAAAAAAAACv07Daoy6rP+vEsCHpdfY1Pw/MGtF2qRfqjjj2EmmmnZrNNHtKN2lxaXizpNKaGU1tU8ppbtyl+zIPcqVo02lLzM9EaUVVbE8pr/l1rr6i0OFalCXTGSfY00dVojHurBuazjk3x6yTzsXhVDjht0/wsEVmgcX/42k4TW6U3F9ftIuP6mjdXxDeSyXmUekZOnUhUW9WffF3IaTVmTgouM36o+t1Kjk3KTu3mzwwpzUkpLc0muxq6MzJAAAkgFbp7FKnQm75y5C/Nl6XLI53XJ/ZwXx+kX+5K3JWrOZjUT3M9ITiZRqSXSdGcnw+hMM6m6P4fmyHHE8Ubo1Yvp+RKaZRxaMzdFxUVeN7t53aeVv3NBk5ZJcG342JZCM675TtwXojXGTW5tdjsetngFzKc3Le7mIAIAAABtxC2sNVXDleFv2NRJoR2qdaHGm/RkPYJ2afRruUurkeW31HTHO6tR5Un1L5nRGRGOfzmAADjAAAAAAAAABB0zWjGlJSeclaK4slYqvGnBzluXn1I5DF4mded3veUYrOy6EiDswlBzlmeyMtFUturBW3Su+xZnYkHROj1RhnnOXOfD4UTgRjKyqz02RQazQjem7K7vd9LSta5u1aj9nJ8anokR9Z5cqC6pPxf8G/QbapZPfOT+RJ0STeEiv7ctZ0IvqKvSujpzS2bOz8ia6kuJjKcuLBzUpTg00y70XpuFOhThUUnOMIxlZJ83JZt8EjdPWan92nN9riv3OZaPGiuVGjnd3L+etEvu0l3yb9ERp6zVnuhBd0n8yqjSbV0jU4k2RKZZT1hxL++l2RXzIGLx1WrZVKjkk7pOyS8DW0YNE2LXMGjFo2NGNgWuamjxo2tGLQLJmMakluZsjin0rwNbRi0TdktJ7kyFeL6bdpsK1o9jJrcyymVdJeRZAhxxTW9X8jdHExfTbtLKSZm6ckbgeJ33HpJQEzRmc3H3otEMk6Place/wBGCJbMr9XIWc+p28C8ZXaLpbEqy/zZepYmJnipZqrft2AABzgAAAAAAAAFdpvDVKkEoZ2d2rpdGW8qtDTUKuxOmtt3UXvt1b7d4BB6uG4qDi9rM6JzZ45sAk82xzusUr1I/wCn/wBmb9FYykoRg208+h72+iwBDPWjBSw6T/tyzaMWgCTz0eNHjQALI34R5tEidOL3q4AManMRqmCX3X4kSpTcXZnoBpSm3ozU0YtAA6DFoxaABYNGDQAJRjY8aPQC5g0eNAAlBNrc7G2GLkt+YBKLWT3N9PFRe+68ybhpWnF/EvUAvF3OerBLYmxpbM6j96d/JGYBmzz5u7v7dgAAVAAAP//Z;" vertex="1" parent="1">
          <mxGeometry x="524" y="252.97" width="152" height="84.05" as="geometry" />
        </mxCell>
        <mxCell id="uQ-FMA4ni5SMKxAk8EgQ-236" value="" style="shape=image;verticalLabelPosition=bottom;labelBackgroundColor=default;verticalAlign=top;aspect=fixed;imageAspect=0;image=https://media.kasperskydaily.com/wp-content/uploads/sites/87/2018/01/23102237/vulnerability.jpg;" vertex="1" parent="1">
          <mxGeometry x="910" y="250" width="120" height="80" as="geometry" />
        </mxCell>
        <mxCell id="uQ-FMA4ni5SMKxAk8EgQ-240" value="" style="shape=image;verticalLabelPosition=bottom;labelBackgroundColor=default;verticalAlign=top;aspect=fixed;imageAspect=0;image=https://2.bp.blogspot.com/-yH49VSkFrn8/WkviAJbhDrI/AAAAAAAAGr8/xZGED6o0deUd-CB_1ajSAHoGxE7MycyWwCLcBGAs/s1600/70268066_xl.jpg;" vertex="1" parent="1">
          <mxGeometry x="1262.78" y="247.02" width="154.45" height="90" as="geometry" />
        </mxCell>
        <mxCell id="uQ-FMA4ni5SMKxAk8EgQ-241" value="" style="shape=image;verticalLabelPosition=bottom;labelBackgroundColor=default;verticalAlign=top;aspect=fixed;imageAspect=0;image=https://segurosypensionesparatodos.fundacionmapfre.org/media/blog/seguros-ciberneticos-1194x535-1.png;" vertex="1" parent="1">
          <mxGeometry x="1605" y="247.95" width="210" height="94.1" as="geometry" />
        </mxCell>
        <mxCell id="uQ-FMA4ni5SMKxAk8EgQ-242" value="" style="shape=image;verticalLabelPosition=bottom;labelBackgroundColor=default;verticalAlign=top;aspect=fixed;imageAspect=0;image=data:image/jpeg,/9j/4AAQSkZJRgABAQAAAQABAAD/2wCEAAoHCBUWFRgWFRUZGBgaGhgaGBwaGhoaGBoZGhgZHBgcGhocIS4lHCErIRgYJjgmKy8xNTU1GiQ7QDs0Py40NTEBDAwMEA8QHxISHzQrJSw0NDQ0NDE0NDQ0NDY0NDQ0NDQ0NDQ0NDQ0NDQ0NDQ0NDQ0NDQ0NDQ2NDQ0NDQ0NDQ0NP/AABEIAJkBSQMBIgACEQEDEQH/xAAcAAABBQEBAQAAAAAAAAAAAAAEAgMFBgcBAAj/xABDEAACAQIEAgcFBAkCBQUAAAABAgADEQQFEiExQQYiMlFhcYETQpGh8FJysdEHFDNigpKyweEj8RUWNKLCJENTc5P/xAAZAQADAQEBAAAAAAAAAAAAAAABAgMABAX/xAAnEQACAgICAgEEAgMAAAAAAAAAAQIRAyESMUFRIhMycZEEgRRCYf/aAAwDAQACEQMRAD8AaCqDxj+JCFAe+Bfqe9i+8KTCAW3JtPTdHmqyrZrk7htaCFZVXdNmBHpLSE8J72K/ZEVNJ2FptUR3663IH4TwrOeCmSy0wOQirCHkvRuD9kWqVDyjowjnnJHWAL3nGrqNybQcn4G4oETL25tHly4czDKTBhcR0CI5MZRQJTwKiFogG0VadWK22MkkeanGK50i9ocsTUogwKQzRVcbnABAHIydy7Fq6AiQef5MSCycZC5JmjU30tt3iWcYyjogpSjLZfHxIE8+I2uBF4V0ddQ3jtu4SOkX2wenVYnddoSmEW97bxSKxPDaO06b6vCK2FIV7C4tK9nWTEddBvLjTpR04cEWIixyOLsaWNSVMo2SZiQdD7HxlywqqwuJAZ70fI66DcbxrJM1KHQ/ESk0prkicW4viy3rRji0Y7haiuLiEaROVs6UgQUZ1sOCLEQh3VRdiAJEY3P0W4RdR7zsPzhim+gNpdkRnvRwN1kFj4SLyrHVaTaHBsOcNxmeVWvd9K9w6olcxmf0+AOryH9zOqMZOPGWzllKKlyjo0Ghn1EjdiT4AmLfOEtcK59B+cyip0mt2Vt5m/yEdo9KXbY6QO8fW03+P6G+v7NOo5wj8Ef1A/OPrilPJvhKJSzFw3VY2axHrJnDZsRtcN3/AOJOWFroeOVPsmcWEcWYW8xKpjsodH10Tbw5GXLDYhWF/wAYSMMje6L+EWM3AaUFIrmV45wLOpBkg2LY8pJHLV92QuaF6JuyEp9pdwPPugtSejU4rY8ajmMlHMKwmKR1BBEfYiC6DVg1JDznbRbvGvaTBMm/4kS4f0tLLh3DAEShZ1Qak5YcLyw9HcxDAC+x4Ttu9HClW/BYtQvaLgdTAkvrDm/dyhSYUc+MzoZWIxdJmXqGxgtOjVKlSePOSyJ3QfE4diQyk3HLlApeAuPkFTLzYAvw74S9FXWzMLCNUcuctqduPIR6nlAAN2O5hbXsCT9D1DSq3F7AR7DV1fcT1PC2Frm0do4NV4C0k2iiTHAsWqRYWLVIlj0IAjyLedVItbDnFbGSGauGuLESk9J8gI/1EG4mkIiso3jdbBBhYwxycWLLHyRmfRnOiraW8iJo+D0OARaVPNehTF9dI6TzHIyYyfCVqYsy/lKZHGStPYmNSi6a0WFKIHdHFVRA0o1W5WhCZa54mcz/ACdC/A+HUc579aUTyZWOZhKYBByg0HY3SrK4sRIXNOjAdtabHwllSio4CO6rcdhNGTi7iaUVJUytZdhKybcY5iccy7arnuHAesXmmbXuqGy825ny7hKri8eQbKPMn+wlYxcnbJykoqkSGKxTN2iTK7m+cLT6o6z93Ief5TgzdtDBgWe507C1uXwlSx21yzG/E23JPnwE6Ywrs55zvo9js2qP2n27hYD/ADI1sQ54fgIxWxG+wA89z85ypQq7FkezGy3VrE+FxNKfo0Yexx3PMr8j+EXTccR6ngPUk2gTlU4kM3cD1R5n3j5beMSlW4Lt2Vt5FjwUD4nyET6mxuGi3YHNEUKCSTaw8OfnwPwkzhcw7r2/dt+V5m1OuSrn7JVj5E6SfiRLZkuBxFSmrBQCQGW7bsvedtu+UjOMuycoSj0X7KswGobncgW25y30G3ma5dg8apB0IbEW1OtwQdt73E0HDv8AX+ec5s0VejpwttbJim0e2IsRAqDwkPOdl0RWMyJbl6J9m3cOwfTl6SKOJZG0VBpb5HxB5y2K8Yx+ASsulx5HmD3iNGXhiuPorT1Y37aB45Hw76H3U9luR8/GN/ra94l1H0SciqZ1gA6HbvlKwFZqNXQ2wJuvnNOxIUOBftgkeY4ym9J8jZuso3G4tLu2rXaIKlp9MteVYoOgPMbGSKrKDkOPdCAeq3Bg21/GWsZn3H4bzNN7QE0tMlwsWFkUmIqNwVj6W/GPph6x923mYrjXbHT9IkBbvnRUXvgyZc54sB5QgZaoF2cxXx9jLl6O/rCzhxYhVLAJ3X84UmEXkoiOURlGRF/rbHgD8IpHduCmTKYUd0ISgIrmvQVB+yFTDOfCFJlpPFpLJTjqpEc2OooDw+E023vDkp3ilSOJtFbsdIQEiKtdU3MN0X4QXF4QOpBgQWQy56vtdPuybcMwBQ7TOuktB6DawLpztyk90Wz8OoVjcHgZaWL4qUSEcnycZE2XdKqqWuDJW0HbChnV78OEMkGy6QmQGa5hq6qnqjj+8fyheb4ogaF59r8pX3EeEfLElLwM1jtwv4SqYjHaqh1dXZgqjjwPaPKSme5loUonbI48lB5+cz/E4oow08QQb+I3nbjjStnJklbpEm2ZarjhBa9Mv1VBJPADjeCYlOstRLlHO1vdf3kPjvcd4Il6y7BphKftKxAc2BtuRcdhR3958IzkqEUHYF0d6KCn/qVbM/ujiqA/i3jy5d8K6V4ijSoOKtmLAqiXszsRYWtuAOZ5SDz/AKa1Oxh19mObtZn9BwX5yk4rEPUYu7s7HiWNz/jynO20dCSYOiEkAC5NgBzJOw+JhGY2UimpuEuGP2qh7TeQ2UeC+MtvQjok9b/1DnQlmFM7Fi266wp2AXrWvzA2sIRnX6NqoKnCt7RbdYVHVWDX4g2CkWPPfY8Yngp5KXlA1NUXm1GqB95V1j+iaZ0ArtWwqllA0H2akbalQLY+fL+GG9GOh9OjQp+3ooa93LMCSw1EgLqHGym3duZZMNglRVRFCoosqjYAQJ0Zqx2hTvuOMLSlGqC2MPpiLJjRR2mxEJR42qxYSIMEK0dQwRDCEaBhG8fgkrIUcXBEqf8AyQv22+MuqmevCpNeQOKfgyFMAxdGd9RS9gBYXPGSGkHlGcDiFqC42YEhl5qwO4MMRJ2yZxxXob/VkPFFPmBH6dMDgoHpFqkISnEch1EQoMfpDffhFpTjyUojY6Q1Xplb28xK3ic3ZtdMjSR8x4S7UqeoWPp+UqfSzItSl02Yd0OKUeVMGWMuNokcjxIqJobiBb0kvglIJQg9XgTzEzfoxmjK+hjZ0/7lmoYKuHQMu+3Dx7oM0eL10HFLkv8Ao6qRxUjdLErezAo3ceB8jzhQEgyyEhIsCeAnZgnrTtp6emMLR7R5lg8dp1OUDCAZngFqKVYXvMozTCPgK1xc0mP8pm0Oshs8yhKyMjLe4lcWTi6fRHLjtWuwHoznwdQrHlse+WN6tuXK95jAV8DW9m5OgnqN3eE1bB1GNFC/ErqPlyhywS+S6YMU2/i+0R2a1fiTc+AHGQWZYwgjTtDsyr6nt3m3oOMqGYZld2I7I2HkOcpijYmWVA2ZAtc8bysV8I5JlmGJVuc4aIbbbvJ5AcyZ16apnLtO0QeSs9Jy9xoXSXDDUDY3QAc3uOqeVieF5KYoPiOujM+26H9og5m3vjmWHqBacxSqQFXZRwHMnmx8T8hYROFpAHjYjcW4g+cCiltGcm9Mr2PwxJvPZRkFXE1VpJtfdmPBF5sfjw5kgS0Ypw3bUOftdl/5hx/iBk70ax2Fw9N2BbWxLPfchVsqgsABa5uOdyZLJHVrsrjnumO57j3wbYLDYfQqEqjFxfqKyJxvsbMSTLYLcRuNxxvwvKRm9Snj8Rh0Rl0i6sCxD2YgvYEC9lTb1l3oYdEVURVRF2VVsAB5fEznlHil7Lxlyb9HrTqxWnxEVb6/29IhQ8ohVIwe0epnvisKClMXGkMdUwBOgRxTECKEAR5DPXiQZ68ATN8NgNNR3B2fT1be8Ni1+8i3wkglKN4jArWQqeY6pHFTyYHkRHMkrmohV9qlM+zqD94e8PBhZh5zrlK1ZyxVOghKUJSlHUpQhEknIqojK0o8qRxUjgWK2FIQix6vQDrw48fOcAj1FrHwPGKMZJ0zyVqLitSFiDfz71PnJ/ofnysqtfqtsR9lud5bs6y5aiFSL7f7GZBUVsDiSDtTc2buVvdbyPAzqjJTjTOaUXCVo2xkVxuARF0qYUWHDxN5Xuj+cKVCO2/uk8x5yebEoPenPKLi6Z0RkpKx2dEDbME5AmM1MztyA8zBTDaJKeMg3zYnYNfwUX/CeV6r8Ec+ew+c3Fg5ImmqqOJEabGIPGApgKp46V+ZhKZWPec+m01L2G2H0sUpCjmeEdZYLQwiJuBuOZ3hKm8VjIi8zyGjiLCogYXB+Bi8wqaVNtgB8gNpJnYGQmdN1CPL8d4U22kxWkraKRneKtq3923x4yoYm5X5ydzd9R+8x+HASHxCW2756eONI83JK2AYYMov8orNMxamBTU9bjUPHrckHgvPxPgIS76EL876af3+beSjfzKytVrncmLN0qQ2NcnbCBmT98KwWZEneQto9hSdYAFySAAOJJ4ASUZuysoKtEvjMabE3lhyvonia2GJutJncG1TWGNNR1bgKSt2JNj3CTvR7oclJkq1zrqLuEHYptxH32HfwB79jLYSYs8lvQ0MdLZWuinRL9VZqtSoKlQjSukEIintWvuWPC9hYXFuctQPzjWrlFavq8i232WWuhy8UBGiYrV9f7RQixFqYi87fwmMEI8cVoKrRxXgoYLVosGCo8eVoDD4M5EK07qgCUDotjQ66Cd17Piv+PyljoYZFuVVVLG7EAAk95PMzIuiGaMhse1TNiPtLy+X4Carg82R0DWO/KdOSL+5dM58b/1faJFVjirI9syHIRivnQXtOqeZA/GS4SZXkkTapPEgcSBKwM81mya6h/cRmH81rfOOrTxT9mgQO+o6rb0FyYfptdg5p9E82KQc7+UabMV5D4mR6ZNiG7dVEH7ilj8W2+UfPRukwtUqVH3v2yn9FtvCCorya5PpBdfN19pRTYtUDAgbkW02JHIcZHdIOi1PEghue3oZL4XA0afYRVNrXt1vUnedrZpRRtD1qav9lqihvgTAnT+IWrXyKplvRXEUNKh0qKvZLEq4HINsQfOTaZZXPaZE8ruf7SZDX3B25W4T0LySfZlBLojUyYe/VdvAWUfLeEU8soL7l/Frt+MKtPRbYaR5FVeyoHkLReoxAnYBhV56cEYXGL7Q0jcOFDC42ZeBKnnY8fMTUawmKWJEUIDDrHYSuZ3UIse6/wDSdvnLJbb0laz4bHyb/wAY0PuFl9pSMzw4DqQOrpup/t5iQHsmeoEXjcCWqpVUEq/ZI9VP2h+XORSU/Yu1RrHVshG4II6zD0svgWPdPQi3RwSirK/n5s+gHqoNK+XEk+JNz6+EgWEmcwYOSw5kwClhWd1RF1O7BVHeTwmkjQZGvtNL6J9CPY1Er1nV3UAoig6VcjtMx7RG9gBa+99oCv6OWKjViQH5gU9SA8wCXBPnYS9ZZhfZUkpay+hAupuLACwJt8Jyyfo6or2G/XOJv9cokn6/3nDf6+rxBhd56/nGvrlPaj6fXxho1j+r/M6rfX16xhX5/X5xatBQbHwx+vryig94wHndX16wUGx8Gwjin68IxqixUgowQrR5GgavHleBoKYWDEe0H1eNh57X4wBKHX6CoW9pRqGk9rbrrRh3MtwfgRCsP0bxQGlsVTVf3KJLW/jcgH0MsQcx+m9j3+cq5y9klBeiEp9E6R/a1q9XwNQop/hp6RJHB5HhaW6YempAtqKhmt95rmG4hgDtwI1Dy4Eeh/tKnnnSJ6Dr1bi4J8geU0VKbpMMnGKtltTFrr9muxChvQ34fD5iEhpQP+JEVhUDh9XWuO48j6Wl6w1YOoZTcEXEE4ONBhNSseEUIkGKEmOAZ9Tqthqy4c2qlGCG4B1HuJ4G17HvlNyToNhqWHLZgqCozMSWraVVfdsQQCeZJvuZfsRTLoyhihZWUMvaUkEal8Re/pPnrN8DUo13p1rl0azMSSW5qwJ3IIsfWVxJvSdEsjS21Zb8t6QJl2Kamlf9YwTbjS2soTw08BqB2NtiDfjNC6PdJsPjA3sWbUtiyONLAHgbXII8QZjHRjNhhcQlZlDqLq4IBOhtmK34MNiPK3OXjpVhDhatPNMEAyNY1VXsMr2623BXFgTybSY84q68+xYSaV+DSJ2CZZmCYiklambo4uO8d6t3EG4I7xCpznQdkXjc2CVkojTchnqFm0hKY2DHxLEADz7pKSKx/R/D1X9qyWqgAB1tqsOFwbq3qDDGr2LK60KOe0OCOah7qatU/oBA9YJj3rVwDSw7o6G6PUK0wDzuoJYqRsRaSmCo1EuruHXbSdARh36tJ0nlwAhghtJ6NTa2cS9hqtewvbhfnaOCIEUIgwRy9JXs8Gx8m/ASwrwHlIHOk2+XxB/xDH7gS6M8zQ9e3K0Ax2LFNjR0h0QAOpPFzu7K3FWuSL9yjjJzEIDUVjwUFz/ANVviAPWUqu5LsW4sSSfEnf8AGejHaPPnpinweq7UGLrxKf8Aup33QdofvLfxAgWAzL2NenWA1aGvbvBBVh52JncWhUhlJFtwRsQe8EbiPUcQMQ6pVpe0dyFV6ZCViTw1G2l/NhewO8E7qjQq7L7V6a4JU1B2Y27Co2ry3sB8ZUs16dV6h00QKKd4sznzNrL6D1kjT/R2dXWxI08gKd38iS1hbv3gmZ/o+qKb4eoHX7L2Rx5Hst8pzrijp+TI3F4+qFT/AFamrSHY62uWfe5N9yBYSexecVMRgPb0nIr4Z0eoqkgMEvquBxQqdRHDqkcpWM1uKrqQVKsV0niNPVAPwkQmMqUy/s3ZNaFH0+8h4g/nx3PfKZOkJi7ZtuXY5a9JKydl1DC/EX4gnvBuD5QnVMn6I9LFwqVKbhmWxekBvZ7br+6rbG/Ig98m/wBH/SGviKlZK76zpDpcDq9azgW3t1l7+EiVL7f6+vOKV40pnrw0ax4NFh+UHUxxWgo1hGradVu+DgzpcfV4tBsIBjyvykfisXoR3KltCM+le0wRS2kX5m05luPWtTStTYMrqGH9wfEbg+UFBslVe87r8PxgqVOHyjmod0FDWMiOKY2IpTCAJI1LYdpesvj9pfUfMCV3pNloqoSO64lgpPYgjlPYikLke612XwPvD47+sMJOLsE4qSow+pjXw7jVfQDZh3C81LojmQYaCbg9ZD+I/vKd02yaxJtseP5yJ6FZqVJok2embr4rf+34ETpn8lXvr8nND4v8d/g3IRQgeX4oVEDjnx8DzhYnE1WjsTsWJSP0j9GWxCLXooWrJ1WVe09Mm+3eym5A7mbjtLhisStNHqPcKis7WBJ0qCTYDc7CReUdIRiGUChUpq660dmosrDbYhHZlY3uARDFtO0CSTVMyDA9FMdV7GGqAd7gUx8XIlvwHQjMDR9hUxa06J401LPte9uC7X5XtLThel9Co4RUqEsai0ydFqj07grpVy6AlSAzooPwgWH6QVq2HV1rYenUq2SigDl1xANzQqK1+Sspbq2+crKcn4JqCRL9F+j6YKkaaO76nLsWsNyAOqo7I6o7+c9jek2HpBWqF1VqhpkspGlgGIZl46G07MAb3EreLerjHamq4hErUxrDK6/qeJQEL1jYPTfcMFuOB2vJNOjpqLSc00olqQoYuhxpvSAIXQV2DKd1bkDY8IjSu2PuqRI4jpNQXmxIq06TrpKNTNQ2R2VrHQTazAEG8mpUs46KPUw3s/aCrWTStGrUvTamgK7OyBjU7INiLEgHY7y1qbAaiL2Fzwubbm3nFdeAq/IsT0YfFoOd/KMPmI5L8YKYbQcIrzkFic409p1T1AgYzPWbItSof3UYj+Y2EZQbA5pFvoOCNje0AzuldNQ5cYLlVeotvap7MMbAFlJ799PCTdQAix4HaL9rD2jL8ebJUPiE9GbV+Cyl4+l17zQelGC9mCp95iR4hVFvxMo+LW4no4txPPzakR1c2G8vnRTowuHHtX61Vl2+zTBHBb8+8+FvOkJS1lV72UfEia+8TPKqQ+BXbGW+vrnEH6/zHXjLTmR0MrvSHIPasHRKbNtrDl6bMALAioh42sOsOQ8pVn6HMzEHDVqY5Fa9B0O37wDTSG+rxMfk6oFJOzI8z6KGiC1Q1lXv9ilRfMtTqEDnxtwgOW1qeHda1LGFXUm16DWKkbgjUQQe6bRfuP1/aAnK8OW1nD0td76vZ09V++9r3i0NY30ezF69AO43JIDBWRXHEFVYk25XvY8pJk/RiC31vOqYwp0H64xV4gH0+uEVeYxHdIM3OHRK1gUV1WrzYI1xqXxDFD5XknQrK6h0YMrAMrDdSDuDeR2dZeK9CpRPvqQPvbFD/MBKt+jTOCyPhH7VK7Jfjo1ddf4WP/d4RH2HwX8MOB3vcH14375k9PNcVl5xOGpkaEYOgddVkZwNS37wyX8QfGakrXgWdUqLUXWtbQVIJPEX2Gk8b34W5iFI1lFT9I2I0BfZprtYvvpPjo5H1tG/+ecb9tP/AM1lR25bjl32j8YB9AAxQMQIsSY46hhCrqXTzHWX7w5evCCoY8j2isZEVneCFWmduI+BmMZ1h2w9YVVHWQ7+I4b/AIes37EIL391/k3MevGZ302yfiwHgZfFLkuP6IZFxfL9kp0MzlW02PVcAjwP1tL4DPn7otjTRqmiTsTqQ+PMf39DNkyfPUdQrXDAb9x8RFywb2v7GxyS0/6J+UvH9C2cuqfqtNHcMtRMPoxNMXBsjIQt9u1x3llfM1HAEwd80bkAJKPJdFG4vsSOi+H1sw9ood1qOiuypUdbHU6jmSASBYHmJINhKCv7UpTFTm+hdf8APa8rmK6R0lNnrLf7KnU38q3MHp5nUqfscNVf94roT4tuPhH4N9i80ui2vj0HeYM+ZHksh0yvHPxNKiOfGow9eHyhdPomp3rV6tTvGrQn8q7QVFdsPKT6Q3jc8RO3VVfC4v6KNzAkzdqh/wBGlVq+IUhPVmtaWPB5DhqXYooD3kaj8WvJLUIOUV0jcZPtlUp4DGv7tKiP3mLt/wBu0LpdGb/tcRUfwS1Nfgu/zk8HnLwOb8aG4LyBYXI8NT7NJL97DUfi14frHKNkxDvFbb7Ckl0DZsCyXHFTqENyvFirTB58GHjA6ryNy+uaVT9w8fr65w1aFumSPSHKxWpke+oup5+UyHGUSrsrC35zdVIO/fYiUrpr0c1g1aa9YbsBz8RL/wAfLT4sj/Ix8lyRlwJVrjiDf1B2mtUKodFccGUN6EAj8ZlVdJcOiGcKyCi7WdLhL+8t72HiO7uAnRnjatEMEqdMsrRDR0+MaeciOtjTCJaKaIIhFExJimEQYxjxnREzkIBwGdvtG7zmqCjDhaZN0iV8FmBrUxbU3tU5Bg3bXyJ1D1E1b5SF6SZCmLRAzFWRiVZRqNiOstjyOx9BA1aCnRF479IGHVQaKs7EX0sCqqf3mPG3gD5yk47Pa+JqK9V7hWBVV2Rd+S9/id5eMF0FwqEFtdQg8HYBf5VAv8TK30yWkcTpoqqhEVG0ABdQJPAdwIHp4QpMzaK8y2JHdH9MXWoHWR4mG/qsfgxOaNsi1iOcWsgWFrOmug4sIJiOcjakNAssTYpTQqEblFLjzXeB1qCYmkGG4db/ABkc3/TYj/63/CSPRf8A6Wl9wfhM1x69gXy0/RScy/R+7nVTfSynUpPeIRgMJmNO4ODVmtbUKqhD494+E0RY6sP1ZG+kikUshzOr269LDr3U01sP4m2+UlcP0LpG3t6lWseetyFP8A2lnE9EeR+B1jTAsFk+HpAezpItu5Rf4neHaxGjOrE5N9j8UhzXO6ogTsxj07OT0xj154meaIqTGEu8GqVY5UgVaZAY1WrwehWBcA+kbrwJe0v3h+Mslok3sta4r2QBa5Qkb/Zv/a8lDZl7wechcy/6doX0e/YJ6/jIsqUTpp0XKk1qS3U7uo5H7QH4iUGqtjPoHH9lvKYRm3bf7zf1TvwTco0zhzwUZaHcvz2vSN1csOauSyn4m48xLPhulyFEeohTUzr1DrtpC7kGx97x4SiNCK/7Cj9+r/4R5QjLtCRyOPRej0hpMyKl2LsFJIKhQTa/DcyWaZ1l/bT76f1CaK3GQyRUaovjm5XYkiIaONzjbREUEtOFpw8BOLCA7EkzxnDCAXecJ/vODn5RrGdh/uN/SZjFX6T9JwmqjQN33DuOCd4U828eXnKbhqJY23N/iTB6PASf6PdtvumPHsnN6LLkPRI1H1uLJe9uZ8+7y4+UuX/LuH/+NfgIZlX7FPuxqSnklydFceONbP/Z;" vertex="1" parent="1">
          <mxGeometry x="1993.99" y="247.02" width="172.03" height="80" as="geometry" />
        </mxCell>
      </root>
    </mxGraphModel>
  </diagram>
  <diagram id="XbZbiZXFfcmSqSHMMbIv" name="Página-2">
    <mxGraphModel dx="1120" dy="476" grid="1" gridSize="10" guides="1" tooltips="1" connect="1" arrows="1" fold="1" page="1" pageScale="1" pageWidth="827" pageHeight="1169" math="0" shadow="0">
      <root>
        <mxCell id="0" />
        <mxCell id="1" parent="0" />
      </root>
    </mxGraphModel>
  </diagram>
</mxfile>
